<?xml version="1.0" standalone="no"?>
<!DOCTYPE svg PUBLIC "-//W3C//DTD SVG 20010904//EN"
 "http://www.w3.org/TR/2001/REC-SVG-20010904/DTD/svg10.dtd">
<svg version="1.0" xmlns="http://www.w3.org/2000/svg"
 width="371.000000pt" height="293.000000pt" viewBox="0 0 371.000000 293.000000"
 preserveAspectRatio="xMidYMid meet">

<g transform="translate(0.000000,293.000000) scale(0.100000,-0.100000)"
fill="#000000" stroke="none">
<path d="M1751 2519 c-177 -23 -426 -121 -598 -235 -251 -167 -472 -459 -578
-764 -30 -87 -75 -294 -75 -346 0 -11 17 -14 69 -14 l69 0 7 53 c22 178 70
329 156 498 189 367 505 613 924 719 117 30 341 37 465 16 194 -34 382 -105
527 -201 106 -71 252 -214 315 -310 55 -83 130 -232 148 -292 12 -39 30 -59
30 -32 0 24 -53 165 -89 237 -141 278 -415 512 -722 618 -166 56 -445 79 -648
53z"/>
<path d="M1955 2304 c-11 -2 -45 -9 -75 -15 -142 -28 -318 -100 -445 -184 -85
-56 -242 -216 -305 -309 -118 -177 -200 -423 -200 -602 l0 -34 70 0 70 0 0 48
c0 69 27 223 51 295 33 97 127 270 184 339 92 113 252 239 369 292 171 78 334
111 511 103 66 -3 136 -9 155 -12 81 -15 256 -81 338 -128 202 -115 319 -239
452 -478 53 -94 44 -46 -13 70 -106 218 -283 390 -521 507 -164 80 -274 106
-466 110 -85 1 -164 1 -175 -2z"/>
<path d="M3175 1420 c-3 -5 1 -10 9 -10 9 0 16 -5 16 -11 0 -7 10 -9 27 -4 36
9 41 14 23 25 -20 13 -67 13 -75 0z"/>
<path d="M3202 1305 c-22 -22 -22 -26 -7 -31 24 -10 65 7 81 32 12 18 12 21
-1 21 -8 0 -15 -5 -15 -11 0 -6 -5 -5 -12 2 -16 16 -19 15 -46 -13z"/>
<path d="M1714 793 c-12 -2 -34 -17 -49 -34 -36 -37 -47 -127 -21 -177 42 -82
171 -80 210 3 32 66 11 166 -41 193 -24 13 -73 20 -99 15z m95 -57 c24 -25 32
-87 17 -134 -17 -52 -109 -65 -141 -19 -34 48 -26 144 13 167 32 18 87 12 111
-14z"/>
<path d="M470 660 c0 -109 2 -130 15 -130 11 0 15 12 15 45 l0 45 40 0 c38 0
42 -3 62 -45 14 -29 29 -45 40 -45 23 0 22 0 -3 53 l-22 44 23 31 c18 24 21
38 16 66 -10 50 -37 66 -118 66 l-68 0 0 -130z m131 90 c22 -12 26 -59 7 -78
-7 -7 -34 -12 -60 -12 l-48 0 0 43 c0 24 3 47 7 50 10 11 72 8 94 -3z"/>
<path d="M775 708 c-15 -46 -36 -104 -46 -130 -18 -47 -18 -48 0 -48 12 0 23
11 30 30 9 28 13 30 63 30 50 0 54 -2 65 -30 6 -16 18 -30 27 -30 21 0 22 -5
-27 135 -35 99 -46 121 -63 123 -19 3 -25 -7 -49 -80z m84 -75 c1 -9 -13 -13
-40 -13 -35 0 -40 3 -34 18 4 9 14 37 23 62 l15 45 18 -50 c10 -28 18 -56 18
-62z"/>
<path d="M990 660 c0 -123 1 -130 20 -130 19 0 20 7 20 130 0 123 -1 130 -20
130 -19 0 -20 -7 -20 -130z"/>
<path d="M1110 660 c0 -123 1 -130 20 -130 17 0 20 8 22 92 l3 92 60 -92 c86
-131 95 -127 95 38 0 109 -2 130 -15 130 -12 0 -15 -18 -15 -102 l0 -103 -68
102 c-93 143 -102 140 -102 -27z"/>
<path d="M1390 660 l0 -130 75 0 c62 0 79 4 95 20 24 24 26 67 5 98 -12 16
-13 27 -5 41 16 31 12 56 -13 79 -19 18 -35 22 -90 22 l-67 0 0 -130z m134 78
c18 -29 -4 -53 -53 -56 l-41 -3 0 41 0 41 41 -3 c27 -2 46 -9 53 -20z m10
-110 c20 -28 20 -33 0 -52 -9 -10 -33 -16 -60 -16 l-44 0 0 45 0 45 44 0 c35
0 48 -5 60 -22z"/>
<path d="M1921 723 c11 -38 27 -96 36 -130 29 -107 55 -81 99 101 9 36 14 26
44 -81 18 -65 27 -83 41 -83 10 0 20 8 23 18 49 169 66 235 62 239 -16 16 -35
-15 -56 -91 -12 -47 -26 -86 -30 -86 -4 0 -18 39 -30 86 -22 83 -43 112 -60
84 -4 -7 -18 -51 -31 -97 -13 -51 -25 -79 -30 -71 -4 7 -17 50 -30 96 -17 63
-26 82 -40 82 -17 0 -17 -4 2 -67z"/>
<path d="M2290 660 c0 -109 2 -130 15 -130 12 0 15 13 15 55 l0 55 50 0 c43 0
50 3 50 20 0 17 -7 20 -51 20 l-50 0 3 38 3 37 63 3 c46 2 62 7 62 17 0 12
-17 15 -80 15 l-80 0 0 -130z"/>
<path d="M2545 708 c-15 -46 -36 -104 -46 -130 -18 -47 -18 -48 0 -48 12 0 23
11 30 30 9 28 13 30 63 30 50 0 54 -2 65 -30 6 -16 18 -30 27 -30 21 0 22 -5
-27 135 -35 99 -46 121 -63 123 -19 3 -25 -7 -49 -80z m84 -75 c1 -9 -13 -13
-40 -13 -35 0 -40 3 -34 18 4 9 14 37 23 62 l15 45 18 -50 c10 -28 18 -56 18
-62z"/>
<path d="M2770 660 c0 -109 2 -130 15 -130 11 0 15 12 15 45 l0 45 40 0 c38 0
42 -3 62 -45 14 -29 29 -45 40 -45 23 0 22 0 -3 53 l-22 44 23 31 c18 24 21
38 16 66 -10 50 -37 66 -118 66 l-68 0 0 -130z m131 90 c22 -12 26 -59 7 -78
-7 -7 -34 -12 -60 -12 l-48 0 0 43 c0 24 3 47 7 50 10 11 72 8 94 -3z"/>
<path d="M3030 660 c0 -109 2 -130 15 -130 12 0 15 16 15 87 0 48 4 83 8 78 5
-6 24 -45 43 -87 19 -43 40 -77 47 -78 7 0 32 39 55 88 l42 87 3 -87 c2 -69 6
-88 17 -88 12 0 15 23 15 130 0 167 -12 172 -78 30 -26 -55 -49 -100 -52 -100
-3 0 -27 45 -52 100 -66 142 -78 138 -78 -30z"/>
</g>
</svg>
